<?xml version="1.0" encoding="utf-8"?>
<!-- Generator: Adobe Illustrator 16.0.0, SVG Export Plug-In . SVG Version: 6.00 Build 0)  -->
<!DOCTYPE svg PUBLIC "-//W3C//DTD SVG 1.1//EN" "http://www.w3.org/Graphics/SVG/1.1/DTD/svg11.dtd">
<svg version="1.1" id="Layer_1" xmlns="http://www.w3.org/2000/svg" xmlns:xlink="http://www.w3.org/1999/xlink" x="0px" y="0px"
	 width="512px" height="512px" viewBox="0 0 512 512" enable-background="new 0 0 512 512" xml:space="preserve">
<circle fill-rule="evenodd" clip-rule="evenodd" fill="#ED204E" cx="256.668" cy="255.25" r="250.05"/>
<g>
	<defs>
		<circle id="SVGID_1_" cx="256.668" cy="255.25" r="250.05"/>
	</defs>
	<clipPath id="SVGID_2_">
		<use xlink:href="#SVGID_1_"  overflow="visible"/>
	</clipPath>
	<g clip-path="url(#SVGID_2_)">
		<path fill="#FFFFFF" d="M395.227,603.939c0,23.1-16.621,41.829-37.121,41.829H157.03c-20.504,0-37.12-18.729-37.12-41.829V170.056
			c0-23.099,16.616-41.829,37.12-41.829h201.076c20.5,0,37.121,18.73,37.121,41.829V603.939z"/>
		<path fill="#B7B7B7" d="M276.916,612.403c0,10.687-8.661,19.349-19.349,19.349c-10.685,0-19.345-8.662-19.345-19.349
			c0-10.689,8.66-19.344,19.345-19.344C268.255,593.06,276.916,601.714,276.916,612.403z"/>
		<path fill="#B7B7B7" d="M306.43,168.16c0,3.169-1.622,5.748-3.618,5.748H224.01c-2,0-3.616-2.579-3.616-5.748l0,0
			c0-3.184,1.616-5.759,3.616-5.759h78.801C304.808,162.401,306.43,164.976,306.43,168.16L306.43,168.16z"/>
		<rect x="137.259" y="183.302" fill="#2C3940" width="239.312" height="399.917"/>
	</g>
</g>
<g>
	<path fill="#ED204E" d="M323.178,340.045c-1.273,0-2.386-0.471-3.33-1.418c-0.945-0.943-1.416-2.101-1.416-3.471
		c0-1.038,0.308-2.102,0.921-3.188l7.015-10.983l-14.384,0.427c-1.559,0-2.763-0.473-3.613-1.417
		c-0.851-0.945-1.276-2.078-1.276-3.401c0-1.322,0.426-2.456,1.276-3.4c0.851-0.943,2.055-1.417,3.613-1.417l14.172,0.425
		l-6.66-10.558c-0.71-1.275-1.063-2.432-1.063-3.471c0-1.418,0.483-2.598,1.451-3.544c0.968-0.944,2.091-1.417,3.365-1.417
		c1.795,0,3.189,0.898,4.181,2.692l6.872,12.329l6.59-11.832c1.276-2.126,2.857-3.189,4.748-3.189c1.275,0,2.373,0.462,3.294,1.382
		c0.922,0.921,1.382,2.066,1.382,3.437c0,1.041-0.307,2.079-0.922,3.118L342.45,312.2l14.383-0.425c1.559,0,2.764,0.474,3.612,1.417
		c0.851,0.944,1.276,2.078,1.276,3.4c0,1.323-0.426,2.456-1.276,3.401c-0.849,0.944-2.054,1.417-3.612,1.417l-14.525-0.427
		l6.448,10.063c0.803,1.416,1.204,2.738,1.204,3.968c0,1.416-0.46,2.584-1.382,3.506c-0.92,0.921-1.995,1.382-3.224,1.382
		c-1.89,0-3.4-1.015-4.534-3.048l-6.52-11.547l-6.518,11.547C326.65,338.981,325.114,340.045,323.178,340.045z"/>
</g>
<g>
	<path fill="#FFFFFF" d="M257.378,340.045c-1.273,0-2.385-0.471-3.329-1.418c-0.946-0.943-1.417-2.101-1.417-3.471
		c0-1.038,0.308-2.102,0.922-3.188l7.015-10.983l-14.384,0.427c-1.559,0-2.763-0.473-3.614-1.417
		c-0.85-0.945-1.276-2.078-1.276-3.401c0-1.322,0.426-2.456,1.276-3.4c0.851-0.943,2.055-1.417,3.614-1.417l14.171,0.425
		l-6.66-10.558c-0.709-1.275-1.064-2.432-1.064-3.471c0-1.418,0.485-2.598,1.452-3.544c0.968-0.944,2.092-1.417,3.366-1.417
		c1.795,0,3.189,0.898,4.181,2.692l6.872,12.329l6.59-11.832c1.276-2.126,2.857-3.189,4.747-3.189c1.274,0,2.374,0.462,3.295,1.382
		c0.922,0.921,1.381,2.066,1.381,3.437c0,1.041-0.306,2.079-0.921,3.118l-6.942,11.053l14.383-0.425
		c1.559,0,2.764,0.474,3.612,1.417c0.851,0.944,1.276,2.078,1.276,3.4c0,1.323-0.426,2.456-1.276,3.401
		c-0.849,0.944-2.054,1.417-3.612,1.417l-14.525-0.427l6.447,10.063c0.804,1.416,1.205,2.738,1.205,3.968
		c0,1.416-0.461,2.584-1.382,3.506c-0.921,0.921-1.995,1.382-3.224,1.382c-1.891,0-3.4-1.015-4.535-3.048l-6.519-11.547
		l-6.519,11.547C260.852,338.981,259.314,340.045,257.378,340.045z"/>
</g>
<g>
	<path fill="#FFFFFF" d="M191.579,340.045c-1.273,0-2.385-0.471-3.33-1.418c-0.945-0.943-1.417-2.101-1.417-3.471
		c0-1.038,0.308-2.102,0.921-3.188l7.015-10.983l-14.383,0.427c-1.559,0-2.763-0.473-3.614-1.417
		c-0.85-0.945-1.276-2.078-1.276-3.401c0-1.322,0.426-2.456,1.276-3.4c0.851-0.943,2.055-1.417,3.614-1.417l14.171,0.425
		l-6.66-10.558c-0.709-1.275-1.064-2.432-1.064-3.471c0-1.418,0.484-2.598,1.452-3.544c0.968-0.944,2.092-1.417,3.366-1.417
		c1.795,0,3.189,0.898,4.181,2.692l6.872,12.329l6.59-11.832c1.276-2.126,2.857-3.189,4.748-3.189c1.275,0,2.374,0.462,3.295,1.382
		c0.921,0.921,1.38,2.066,1.38,3.437c0,1.041-0.306,2.079-0.921,3.118l-6.942,11.053l14.383-0.425c1.559,0,2.763,0.474,3.613,1.417
		c0.85,0.944,1.276,2.078,1.276,3.4c0,1.323-0.426,2.456-1.276,3.401c-0.85,0.944-2.054,1.417-3.613,1.417l-14.525-0.427
		l6.447,10.063c0.804,1.416,1.205,2.738,1.205,3.968c0,1.416-0.46,2.584-1.382,3.506c-0.92,0.921-1.994,1.382-3.223,1.382
		c-1.89,0-3.401-1.015-4.535-3.048l-6.519-11.547l-6.518,11.547C195.052,338.981,193.516,340.045,191.579,340.045z"/>
</g>
<g>
	<g>
		<rect x="182.467" y="426.869" fill="#FFFFFF" width="1.373" height="10.213"/>
		<rect x="182.467" y="414.117" fill="#FFFFFF" width="1.373" height="9.5"/>
		<rect x="182.467" y="402.099" fill="#FFFFFF" width="1.373" height="8.849"/>
		<rect x="182.467" y="390.549" fill="#FFFFFF" width="1.373" height="8.331"/>
		<rect x="182.467" y="381.611" fill="#FFFFFF" width="1.373" height="5.79"/>
		<g>
			<path fill="#FFFFFF" d="M209.914,389.864l-0.082-0.026c-0.909-0.238-1.449-0.659-1.449-1.119c0-0.443,0.505-0.853,1.35-1.094
				l0.015-0.007l0.167,0.031V389.864z M209.755,387.757c-0.775,0.229-1.237,0.585-1.237,0.962c0,0.38,0.479,0.746,1.263,0.966
				v-1.921L209.755,387.757z"/>
		</g>
		<g>
			<path fill="#FFFFFF" d="M212.082,387.911v2.027c1.35-0.122,2.363-0.62,2.363-1.22c0-0.547-0.84-1.008-2.009-1.181
				c-0.237,0.126-0.354,0.236-0.354,0.236V387.911L212.082,387.911z"/>
		</g>
		<g>
			<g>
				<path fill="#FFFFFF" d="M208.45,388.719c0,0.443,0.558,0.834,1.396,1.055v-2.064l-0.095-0.02
					C208.966,387.916,208.45,388.29,208.45,388.719z"/>
			</g>
			<g>
				<path fill="#FFFFFF" d="M212.082,387.911v2.027c1.35-0.122,2.363-0.62,2.363-1.22c0-0.547-0.84-1.008-2.009-1.181
					c-0.237,0.126-0.354,0.236-0.354,0.236V387.911L212.082,387.911z"/>
			</g>
		</g>
		<rect x="182.265" y="399.448" fill="#FFFFFF" width="2.59" height="1.99"/>
		<g>
			<path fill="#FFFFFF" d="M194.329,388.391v2.198C195.661,389.92,195.27,388.701,194.329,388.391z"/>
		</g>
		<path fill="#FFFFFF" d="M223.9,386.928c0,0-3.667,2.481-8.035,0.68c-1.772-0.689-2.899-0.343-3.43-0.069
			c1.168,0.173,2.009,0.634,2.009,1.181c0,0.6-1.013,1.098-2.363,1.22c-0.205,0.02-0.417,0.027-0.634,0.027
			c-0.589,0-1.138-0.07-1.601-0.192c-0.839-0.221-1.396-0.611-1.396-1.055c0-0.429,0.516-0.803,1.301-1.029l-4.104-0.762v4.89
			c6.852,0.503,12.495,5.252,14.222,11.577c1.864-0.369,4.031-1.465,4.031-1.465V386.928z"/>
		<path fill="#FFFFFF" d="M205.41,423.132l0.001,1.286h2.268v1.182c0,0,0.036,1.693,3.082,1.693c3.048,0,3.489-1.893,3.489-1.893
			s1.83,1.318,4.944,1.318c3.115,0,4.706-2.201,4.706-2.201v-16.932c0,0-1.817,0.919-3.558,1.356
			C219.614,416.604,213.28,422.665,205.41,423.132z"/>
		<path fill="#FFFFFF" d="M188.899,411.131c-1.571-0.196-3.263-0.576-4.552-1.379v1.805h-2.082v2.003h2.082v10.643h-2.082v2.036
			h2.082c0,0,2.539,2.436,7.238,2.185c4.699-0.259,5.13-0.919,5.157-1.554c0.024-0.631,0-1.066,0-1.066s-0.255-0.761,1.32-1.063
			c1.575-0.309,2.108-0.408,2.108-0.408v-1.734C194.599,421.078,190.25,416.678,188.899,411.131z"/>
		<path fill="#FFFFFF" d="M200.17,392.337v-5.409c-2.015,0.263-3.959,0.835-5.018,1.18c-0.516,0.17-0.823,0.283-0.823,0.283
			c0.946,0.312,1.338,1.548-0.026,2.211c-0.756,0.371-2.051,0.566-4.089,0.333c-6.183-0.841-6.096-3.245-6.096-3.245h-1.854v2.404
			h2.109c0,0,0,11.091,0,11.836c0,0.881,0.29,1.267,0.313,1.304c1.102,1.502,2.729,2.185,3.873,2.492
			C189.283,399.287,193.971,394.019,200.17,392.337z"/>
		<path fill="#FFFFFF" d="M206.4,404.389h5.962c0,0-0.339-4.2-6.299-4.2c-5.961,0-4.233,0-4.233,0s-5.352,0.101-5.352,4.2
			c0,4.098,5.115,3.895,5.115,3.895s5.216,0.135,5.216,1.522c0,1.39-3.793,1.93-4.369,0h-6.197c0,0,0.168,4.369,6.128,4.369
			c5.961,0,3.557,0,3.557,0s6.906,0.239,6.906-4.709c0-4.4-7.01-4.266-7.01-4.266s-3.96,0.036-3.96-1.184
			C201.865,402.798,206.299,402.593,206.4,404.389z"/>
	</g>
	<g>
		<g>
			<path fill="#FFFFFF" d="M290.909,411.509c0.045,0.147-0.017,3.896-0.017,3.896s-1.437,0.737-3.524,1.119
				c-1.969,0.354-3.869,0.194-5.758-0.366c-4.184-1.251-6.684-4.85-6.484-9.298c0.186-4.138,3.104-7.543,7.21-8.443
				c2.575-0.563,5.105-0.354,7.642,0.282c0.667,0.171,0.942,0.414,0.942,0.414s0.002,2.92,0.002,4.131
				c-3.333-1.12-6.596-2.228-9.144,1.119c-1.168,1.537-0.981,4.579,0.145,6.119C283.53,412.675,285.898,412.949,290.909,411.509z"/>
			<path fill="#FFFFFF" d="M247.134,403.185c-1.203-0.423-2.215-0.825-3.254-1.128c-0.975-0.277-1.968-0.284-2.934,0.129
				c-0.554,0.237-1.027,0.522-1.109,1.197c-0.095,0.75,0.319,1.22,0.925,1.486c1.525,0.677,3.136,1.186,4.602,1.972
				c2.851,1.529,3.548,5.12,1.551,7.513c-1.378,1.643-3.262,2.226-5.304,2.377c-1.899,0.137-3.758-0.162-5.621-0.565
				c-0.859-0.182-1.506-0.461-1.506-0.461s-0.019-3.062-0.019-4.043c1.798,0.65,3.455,1.437,5.313,1.305
				c0.519-0.036,1.033-0.01,1.538-0.243c0.612-0.291,1.072-0.623,1.108-1.371c0.036-0.691-0.354-1.102-0.898-1.35
				c-1.329-0.611-2.707-1.113-4.017-1.754c-2.413-1.179-3.511-2.869-3.284-5.023c0.258-2.441,1.789-3.791,3.997-4.539
				c2.772-0.943,5.47-0.586,8.169,0.335c0.303,0.1,0.74,0.319,0.74,0.319S247.134,402.082,247.134,403.185z"/>
			<path fill="#FFFFFF" d="M261.511,398.115c-5.893,0.003-9.673,3.7-9.655,9.436c0.015,5.802,3.635,9.21,9.771,9.199
				c5.881-0.012,9.621-3.615,9.619-9.27C271.243,401.779,267.433,398.111,261.511,398.115z M264.543,410.897
				c-0.689,1.21-1.849,1.706-3.188,1.633c-1.409-0.069-2.491-0.738-3.074-2.084c-0.402-0.92-0.67-1.875-0.629-2.892
				c-0.013-2.535,1.098-4.567,2.742-5.021c2.134-0.587,3.795,0.28,4.575,2.456C265.697,407.007,265.619,409.013,264.543,410.897z"/>
			<path fill="#FFFFFF" d="M331.546,407.725c2.935-1.698,3.88-3.291,3.298-5.555c-0.603-2.363-2.671-3.71-5.877-3.75
				c-2.999-0.032-10.209-0.045-10.209-0.045s0.021,9.541,0.021,13.696c0,4.588-0.008,4.294-0.008,4.294l5.561,0.018l-0.004-7.234
				c0,0,0.359-0.027,0.731-0.027c2.081,0.014,2.919,0.487,3.559,1.96c0.627,1.437,1.145,2.926,1.706,4.388
				c0.211,0.557,0.369,0.911,0.369,0.911s4.073,0.026,5.904,0.026C335.117,413.267,334.91,409.612,331.546,407.725z
				 M326.112,405.924c-1.463,0-1.727-0.009-1.727-0.009s0.04-3.261,0.04-4.027c3.979-0.169,4.946,0.684,4.956,2.031
				C329.385,405.305,328.326,405.924,326.112,405.924z"/>
			<path fill="#FFFFFF" d="M308.493,399.042c-0.283-0.699-0.254-0.628-0.254-0.628l-6.833-0.029c0,0-0.195,0.301-0.563,1.214
				c-2.043,5.096-4.163,10.167-6.225,15.253c-0.185,0.456-0.615,1.555-0.615,1.555h5.688l1.513-3.899l7.296,0.041l1.544,3.858
				c0,0,4.567,0,5.542,0C313.144,410.449,310.792,404.756,308.493,399.042z M302.265,408.843c0.834-2.173,1.627-4.24,2.511-6.542
				c0.856,2.298,1.617,4.335,2.44,6.542C305.506,408.843,303.997,408.843,302.265,408.843z"/>
		</g>
	</g>
</g>
</svg>
