<?xml version="1.0" encoding="utf-8"?>
<!-- Generator: Adobe Illustrator 16.0.0, SVG Export Plug-In . SVG Version: 6.00 Build 0)  -->
<!DOCTYPE svg PUBLIC "-//W3C//DTD SVG 1.1//EN" "http://www.w3.org/Graphics/SVG/1.1/DTD/svg11.dtd">
<svg version="1.1" id="Layer_1" xmlns="http://www.w3.org/2000/svg" xmlns:xlink="http://www.w3.org/1999/xlink" x="0px" y="0px"
	 width="307.275px" height="545.387px" viewBox="119.056 -119.056 307.275 545.387"
	 enable-background="new 119.056 -119.056 307.275 545.387" xml:space="preserve">
<rect x="119.056" y="65.375" fill="#2BA0DA" width="315.157" height="369.25"/>
<circle fill="#51C4F1" cx="279.632" cy="265.207" r="115.495"/>
<rect x="119.056" y="-127.351" fill="#EFEFEF" width="315.157" height="193.262"/>
<g id="RpFXYI_3_">
	<g>
		<path fill="#87D5F3" d="M275.428,109.99c36.745,0.688,67.554,12.493,93.378,36.804c4.011,3.776,3.892,9.548-0.239,13.859
			c-3.609,3.771-9.474,3.896-13.273,0.308c-18-16.999-39.293-27.401-63.814-30.336c-34.188-4.091-64.231,5.795-90.046,28.556
			c-1.181,1.043-2.272,2.195-3.488,3.193c-3.931,3.222-9.141,2.843-12.822-0.88c-3.759-3.811-4.36-9.287-0.792-12.942
			c3.843-3.938,8.021-7.604,12.387-10.963c18.503-14.211,39.395-22.903,62.483-26.159
			C265.038,110.602,270.963,110.375,275.428,109.99z"/>
		<path fill="#87D5F3" d="M282.002,158.326c20.527,0.344,42.655,8.951,61.519,26.114c6.445,5.857,3.757,13.867-1.899,16.725
			c-3.633,1.837-7.607,1.29-10.564-1.517c-12.136-11.502-26.401-18.826-42.983-21.033c-23.562-3.137-44.271,3.549-62.163,19.129
			c-1.726,1.499-3.334,3.298-5.332,4.288c-4.354,2.166-9.335,0.384-12.162-3.919c-2.606-3.979-2.05-8.761,1.478-12.193
			c10.574-10.299,22.856-17.812,36.839-22.537C256.575,160.054,266.7,158.351,282.002,158.326z"/>
	</g>
</g>
<g>
	<rect x="265.534" y="19.645" fill="#F4783E" width="17.508" height="6.148"/>
	<rect x="247.989" y="25.795" fill="#47ABE0" width="17.507" height="6.147"/>
	<rect x="265.534" y="25.795" fill="#16AF99" width="17.508" height="6.147"/>
	<rect x="247.989" y="31.942" fill="#F4783E" width="17.507" height="6.148"/>
	<path fill="#FFFFFF" d="M193.112,55.767H419.15V16.57H281.652c0,0,0,3.075,0,8.147c0,5.073-3.997,4.458-3.997,4.458h-19.829v4.15
		c0,5.84-4.305,4.766-4.305,4.766H134.24c0,0-0.77,6.07,0,9.53h52.263L193.112,55.767z"/>
	<polygon fill="#0A7EAD" points="333.76,16.57 333.76,13.958 340.064,3.35 356.819,3.236 356.819,16.57 	"/>
	<rect x="177.96" y="25.795" fill="#16AF99" width="17.507" height="6.147"/>
	<rect x="160.453" y="31.942" fill="#47ABE0" width="17.507" height="6.148"/>
	<rect x="195.467" y="25.795" fill="#F4783E" width="17.507" height="6.147"/>
	<rect x="212.974" y="25.795" fill="#47ABE0" width="17.508" height="6.147"/>
	<rect x="230.48" y="25.795" fill="#F4783E" width="17.508" height="6.147"/>
	<rect x="247.989" y="19.645" fill="#DC1F26" width="17.507" height="6.148"/>
	<rect x="195.467" y="19.645" fill="#DC1F26" width="17.507" height="6.148"/>
	<rect x="212.974" y="19.645" fill="#F4783E" width="17.508" height="6.148"/>
	<rect x="230.48" y="19.645" fill="#47ABE0" width="17.508" height="6.148"/>
	<rect x="160.453" y="25.795" fill="#DC1F26" width="17.507" height="6.147"/>
	<rect x="195.467" y="31.942" fill="#47ABE0" width="17.507" height="6.148"/>
	<rect x="177.96" y="31.942" fill="#DC1F26" width="17.507" height="6.148"/>
	<rect x="230.48" y="31.942" fill="#DC1F26" width="17.508" height="6.148"/>
	<rect x="212.974" y="31.942" fill="#16AF99" width="17.508" height="6.148"/>
	<rect x="290.875" y="12.727" fill="#F9F2EA" width="35.661" height="3.843"/>
	<g>
		<path fill="#D1B284" d="M413.212,45.699c0,0.509-0.413,0.922-0.922,0.922h-3.382c-0.509,0-0.922-0.414-0.922-0.922V44.93
			c0-0.51,0.413-0.922,0.922-0.922h3.382c0.509,0,0.922,0.412,0.922,0.922V45.699z"/>
		<path fill="#D1B284" d="M398.379,45.699c0,0.255-0.206,0.461-0.461,0.461h-1.537c-0.254,0-0.461-0.206-0.461-0.461v-1.229
			c0-0.255,0.207-0.461,0.461-0.461h1.537c0.255,0,0.461,0.206,0.461,0.461V45.699z"/>
		<path fill="#D1B284" d="M395.459,45.699c0,0.255-0.206,0.461-0.461,0.461h-1.537c-0.255,0-0.461-0.206-0.461-0.461v-1.229
			c0-0.255,0.206-0.461,0.461-0.461h1.537c0.255,0,0.461,0.206,0.461,0.461V45.699z"/>
		<path fill="#D1B284" d="M392.538,45.699c0,0.255-0.206,0.461-0.461,0.461h-1.537c-0.255,0-0.462-0.206-0.462-0.461v-1.229
			c0-0.255,0.207-0.461,0.462-0.461h1.537c0.255,0,0.461,0.206,0.461,0.461V45.699z"/>
		<path fill="#D1B284" d="M389.387,45.699c0,0.255-0.206,0.461-0.461,0.461h-5.688c-0.255,0-0.462-0.206-0.462-0.461v-1.229
			c0-0.255,0.207-0.461,0.462-0.461h5.688c0.255,0,0.461,0.206,0.461,0.461V45.699z"/>
		<circle fill="#D1B284" cx="399.724" cy="47.275" r="0.653"/>
		<circle fill="#D1B284" cx="383.93" cy="47.275" r="0.653"/>
		<path fill="#D1B284" d="M406.528,47.601c0,0.18-0.146,0.326-0.327,0.326h-3.344c-0.181,0-0.326-0.146-0.326-0.326l0,0
			c0-0.181,0.146-0.327,0.326-0.327h3.344C406.38,47.275,406.528,47.421,406.528,47.601L406.528,47.601z"/>
		<path fill="#D1B284" d="M173.726,44.085c0,0.255-0.207,0.461-0.461,0.461h-1.845c-0.255,0-0.461-0.206-0.461-0.461v-1.997
			c0-0.255,0.207-0.461,0.461-0.461h1.845c0.254,0,0.461,0.207,0.461,0.461V44.085z"/>
		<path fill="#D1B284" d="M170.421,44.085c0,0.255-0.207,0.461-0.461,0.461h-1.844c-0.254,0-0.461-0.206-0.461-0.461v-1.997
			c0-0.255,0.207-0.461,0.461-0.461h1.844c0.255,0,0.461,0.207,0.461,0.461V44.085z"/>
		<path fill="#D1B284" d="M167.117,44.085c0,0.255-0.207,0.461-0.461,0.461h-1.846c-0.254,0-0.461-0.206-0.461-0.461v-1.997
			c0-0.255,0.207-0.461,0.461-0.461h1.846c0.254,0,0.461,0.207,0.461,0.461V44.085z"/>
		<path fill="#D1B284" d="M163.812,44.085c0,0.255-0.207,0.461-0.461,0.461h-1.845c-0.254,0-0.461-0.206-0.461-0.461v-1.997
			c0-0.255,0.207-0.461,0.461-0.461h1.845c0.254,0,0.461,0.207,0.461,0.461V44.085z"/>
		<path fill="#D1B284" d="M160.506,44.085c0,0.255-0.206,0.461-0.461,0.461h-1.614c-0.255,0-0.461-0.206-0.461-0.461v-1.384
			c0-0.253,0.207-0.461,0.461-0.461h1.614c0.255,0,0.461,0.208,0.461,0.461V44.085z"/>
		<path fill="#D1B284" d="M149.286,44.392c0,0.256-0.207,0.461-0.461,0.461h-0.692c-0.254,0-0.461-0.207-0.461-0.461v-1.691
			c0-0.253,0.207-0.461,0.461-0.461h0.692c0.254,0,0.461,0.208,0.461,0.461V44.392z"/>
		<path fill="#D1B284" d="M147.211,44.392c0,0.256-0.207,0.461-0.461,0.461h-0.692c-0.254,0-0.461-0.207-0.461-0.461v-1.691
			c0-0.253,0.207-0.461,0.461-0.461h0.692c0.254,0,0.461,0.208,0.461,0.461V44.392z"/>
		<path fill="#D1B284" d="M143.599,44.392c0,0.256-0.207,0.461-0.461,0.461h-0.691c-0.254,0-0.461-0.207-0.461-0.461v-1.691
			c0-0.253,0.207-0.461,0.461-0.461h0.691c0.254,0,0.461,0.208,0.461,0.461V44.392z"/>
		<path fill="#D1B284" d="M141.601,44.392c0,0.256-0.207,0.461-0.461,0.461h-0.691c-0.254,0-0.461-0.207-0.461-0.461v-1.691
			c0-0.253,0.207-0.461,0.461-0.461h0.691c0.254,0,0.461,0.208,0.461,0.461V44.392z"/>
		<path fill="#D1B284" d="M139.603,44.392c0,0.256-0.207,0.461-0.461,0.461h-0.691c-0.254,0-0.461-0.207-0.461-0.461v-1.691
			c0-0.253,0.207-0.461,0.461-0.461h0.691c0.254,0,0.461,0.208,0.461,0.461V44.392z"/>
	</g>
	<ellipse fill="#FFFFFF" cx="347.25" cy="9.838" rx="5.647" ry="5.549"/>
	<path fill="#1F9CD8" d="M347.944,8.748h2.106c0,0-0.119-1.484-2.228-1.484c-2.106,0-1.496,0-1.496,0s-1.892,0.036-1.892,1.484
		c0,1.45,1.808,1.378,1.808,1.378s1.844,0.047,1.844,0.538s-1.34,0.682-1.545,0h-2.19c0,0,0.061,1.545,2.168,1.545
		c2.106,0,1.258,0,1.258,0s2.44,0.084,2.44-1.664c0-1.557-2.478-1.509-2.478-1.509s-1.401,0.012-1.401-0.419
		C346.338,8.185,347.908,8.115,347.944,8.748z"/>
	<path fill="#F3BC1C" d="M419.15,55.767H193.112l-6.61-8.146h-52.263c0.768,3.458,0.614,4.149,5.917,8.762s4.611,8.992,4.611,8.992
		s264.929,0,270.461,0c4.92,0,3.921-5.883,3.921-7.207C419.15,56.844,419.15,55.767,419.15,55.767z"/>
	<g>
		<g>
			<path fill="#2298D5" d="M256.681,48.05c0.02,0.065-0.009,1.72-0.009,1.72s-0.634,0.326-1.554,0.493
				c-0.869,0.159-1.708,0.087-2.541-0.16c-1.848-0.552-2.951-2.14-2.863-4.104c0.082-1.825,1.37-3.329,3.184-3.726
				c1.136-0.25,2.254-0.156,3.371,0.126c0.297,0.073,0.417,0.181,0.417,0.181s0.001,1.289,0.001,1.825
				c-1.472-0.497-2.91-0.984-4.037,0.494c-0.515,0.676-0.433,2.021,0.064,2.697C253.423,48.565,254.468,48.685,256.681,48.05z"/>
			<path fill="#2298D5" d="M237.359,44.377c-0.532-0.187-0.979-0.366-1.438-0.499c-0.43-0.123-0.869-0.126-1.294,0.057
				c-0.245,0.105-0.453,0.229-0.49,0.526c-0.042,0.333,0.143,0.54,0.409,0.658c0.673,0.3,1.385,0.522,2.031,0.871
				c1.258,0.673,1.566,2.26,0.684,3.313c-0.607,0.728-1.438,0.984-2.34,1.05c-0.838,0.062-1.66-0.07-2.48-0.249
				c-0.379-0.081-0.665-0.202-0.665-0.202s-0.009-1.354-0.009-1.784c0.793,0.287,1.525,0.633,2.345,0.576
				c0.229-0.018,0.456-0.004,0.679-0.108c0.271-0.127,0.474-0.274,0.49-0.605c0.015-0.304-0.156-0.484-0.397-0.595
				c-0.587-0.268-1.193-0.492-1.773-0.774c-1.064-0.52-1.551-1.266-1.449-2.218c0.114-1.076,0.789-1.671,1.765-2.003
				c1.224-0.417,2.415-0.258,3.605,0.147c0.135,0.046,0.326,0.141,0.326,0.141S237.359,43.888,237.359,44.377z"/>
			<path fill="#2298D5" d="M243.705,42.138c-2.601,0-4.271,1.631-4.263,4.164c0.007,2.562,1.604,4.064,4.312,4.061
				c2.595-0.003,4.246-1.595,4.245-4.089C247.999,43.756,246.319,42.137,243.705,42.138z M245.042,47.78
				c-0.305,0.533-0.814,0.752-1.408,0.721c-0.621-0.031-1.099-0.326-1.355-0.919c-0.178-0.408-0.295-0.826-0.277-1.275
				c-0.006-1.119,0.484-2.018,1.209-2.216c0.942-0.258,1.675,0.123,2.021,1.083C245.552,46.065,245.518,46.948,245.042,47.78z"/>
			<path fill="#2298D5" d="M274.616,46.379c1.297-0.749,1.713-1.452,1.457-2.449c-0.268-1.044-1.181-1.639-2.594-1.655
				c-1.323-0.016-4.509-0.021-4.509-0.021s0.011,4.211,0.011,6.045c0,2.022-0.003,1.896-0.003,1.896l2.454,0.006l-0.002-3.192
				c0,0,0.158-0.013,0.322-0.013c0.918,0.007,1.289,0.216,1.571,0.867c0.275,0.633,0.505,1.289,0.753,1.935
				c0.093,0.245,0.162,0.402,0.162,0.402s1.798,0.01,2.605,0.01C276.194,48.825,276.101,47.212,274.616,46.379z M272.218,45.584
				c-0.646,0-0.762-0.003-0.762-0.003s0.018-1.44,0.018-1.778c1.756-0.074,2.185,0.301,2.188,0.897
				C273.663,45.31,273.198,45.584,272.218,45.584z"/>
			<path fill="#2298D5" d="M264.442,42.547c-0.124-0.308-0.111-0.277-0.111-0.277l-3.016-0.013c0,0-0.087,0.135-0.249,0.537
				c-0.902,2.25-1.838,4.486-2.747,6.733c-0.082,0.201-0.272,0.684-0.272,0.684h2.512l0.666-1.718l3.222,0.018l0.681,1.701
				c0,0,2.018,0,2.447,0C266.495,47.583,265.456,45.07,264.442,42.547z M261.693,46.874c0.369-0.961,0.719-1.872,1.107-2.889
				c0.379,1.014,0.714,1.913,1.078,2.889C263.125,46.874,262.457,46.874,261.693,46.874z"/>
		</g>
		<g>
			<path fill="#10ABE3" d="M335.791,45.057l-0.01-0.521c0,0-1.437-0.011-2.067,0.007c-0.318,0.007-0.642,0.039-0.95,0.109
				c-0.806,0.184-1.354,0.782-1.474,1.563c-0.128,0.844,0.179,1.486,0.923,1.938c0.094,0.057,0.183,0.119,0.22,0.144
				c-0.261,0.282-0.599,0.513-0.738,0.83c-0.186,0.416,0.124,0.713,0.564,0.933c-0.226,0.094-0.388,0.152-0.545,0.226
				c-0.495,0.229-0.783,0.617-0.788,1.164c-0.004,0.546,0.256,0.967,0.763,1.176c1.137,0.467,2.289,0.448,3.412-0.023
				c0.516-0.215,0.769-0.656,0.771-1.239c0.003-0.523-0.152-0.945-0.649-1.167c-0.231-0.105-0.485-0.18-0.738-0.225
				c-0.63-0.108-1.268-0.181-1.896-0.299c-0.13-0.024-0.449-0.071-0.457-0.366c0.016-0.08,0.017-0.223,0.187-0.341
				c0.171-0.12,0.334-0.203,0.441-0.237c0.471-0.153,0.958-0.267,1.413-0.457c1.228-0.508,1.595-1.809,0.844-2.896
				c-0.052-0.075-0.085-0.165-0.163-0.318C335.153,45.057,335.791,45.057,335.791,45.057z M333.36,50.386
				c0.454-0.008,0.849,0.079,1.235,0.172c0.396,0.096,0.659,0.342,0.68,0.778c0.021,0.418-0.155,0.724-0.632,0.89
				c-0.863,0.304-1.743,0.325-2.604-0.035c-0.343-0.145-0.561-0.397-0.538-0.789c0.022-0.393,0.24-0.683,0.598-0.793
				C332.517,50.478,332.952,50.393,333.36,50.386z M333.372,47.961c-0.848,0.009-1.504-0.625-1.499-1.443
				c0.005-0.799,0.67-1.458,1.473-1.455c0.807,0.004,1.433,0.631,1.437,1.439C334.786,47.318,334.17,47.953,333.372,47.961z"/>
			<path fill="#10ABE3" d="M319.896,45.057l-0.01-0.521c0,0-1.436-0.011-2.065,0.007c-0.319,0.007-0.644,0.039-0.951,0.109
				c-0.806,0.184-1.354,0.782-1.475,1.563c-0.128,0.844,0.181,1.486,0.925,1.938c0.093,0.057,0.182,0.119,0.219,0.144
				c-0.262,0.282-0.6,0.513-0.739,0.83c-0.184,0.416,0.125,0.713,0.565,0.933c-0.227,0.094-0.389,0.152-0.546,0.226
				c-0.495,0.229-0.781,0.617-0.786,1.164c-0.006,0.546,0.255,0.967,0.762,1.176c1.136,0.467,2.288,0.448,3.412-0.023
				c0.515-0.215,0.769-0.656,0.771-1.239c0.002-0.523-0.153-0.945-0.649-1.167c-0.232-0.105-0.485-0.18-0.737-0.225
				c-0.631-0.108-1.27-0.181-1.896-0.299c-0.131-0.024-0.448-0.071-0.457-0.366c0.016-0.08,0.018-0.223,0.187-0.341
				c0.17-0.12,0.335-0.203,0.44-0.237c0.472-0.153,0.957-0.267,1.413-0.457c1.229-0.508,1.596-1.809,0.844-2.896
				c-0.052-0.075-0.084-0.165-0.162-0.318C319.257,45.057,319.896,45.057,319.896,45.057z M317.465,50.386
				c0.453-0.008,0.849,0.079,1.236,0.172c0.394,0.096,0.657,0.342,0.678,0.778c0.021,0.418-0.155,0.724-0.631,0.89
				c-0.864,0.304-1.743,0.325-2.604-0.035c-0.344-0.145-0.559-0.397-0.537-0.789c0.021-0.393,0.239-0.683,0.598-0.793
				C316.623,50.478,317.058,50.393,317.465,50.386z M317.477,47.961c-0.847,0.009-1.504-0.625-1.499-1.443
				c0.004-0.799,0.672-1.458,1.474-1.455c0.806,0.004,1.432,0.631,1.437,1.439C318.891,47.318,318.276,47.953,317.477,47.961z"/>
			<path fill="#10ABE3" d="M284.042,45.78c-0.574-0.259-1.159-0.498-1.706-0.806c-0.665-0.374-0.861-1.222-0.495-1.892
				c0.384-0.702,1.27-1.062,2.087-0.816c0.459,0.139,0.9,0.334,1.352,0.504c0.173-0.367,0.102-0.61-0.248-0.788
				c-0.139-0.069-0.279-0.136-0.427-0.185c-0.947-0.312-1.883-0.337-2.73,0.262c-0.732,0.517-1.025,1.271-0.891,2.142
				c0.117,0.768,0.666,1.234,1.328,1.568c0.637,0.32,1.282,0.619,1.919,0.938c1.06,0.531,0.821,2.182-0.025,2.646
				c-0.658,0.362-1.332,0.36-2.001,0.079c-0.415-0.173-0.801-0.417-1.246-0.651c0,0.219-0.016,0.415,0.006,0.605
				c0.011,0.084,0.078,0.191,0.151,0.237c0.903,0.558,1.86,0.853,2.923,0.518c1.271-0.401,1.873-1.606,1.492-2.883
				C285.305,46.505,284.727,46.087,284.042,45.78z"/>
			<path fill="#10ABE3" d="M326.968,41.842c-0.044-0.098-0.109-0.25-0.231-0.25c-0.123,0-0.197,0.152-0.244,0.253
				c-0.23,0.507-0.442,1.023-0.665,1.535c-0.703,1.619-1.408,3.237-2.11,4.856c-0.258,0.596-0.511,1.191-0.774,1.811
				c0.563,0,0.689-0.012,0.689-0.012l1.146-2.871c0,0,0.159,0.003,0.422,0.006c1.024,0.012,2.052,0.015,3.076-0.003
				c0.255-0.004,0.336,0.004,0.336,0.004s0.476,1.143,0.651,1.563c0.164,0.39,0.567,1.315,0.567,1.315l0.615-0.024
				C330.448,50.025,327.468,42.964,326.968,41.842z M324.945,46.619l1.783-3.912l1.689,3.912H324.945z"/>
			<path fill="#10ABE3" d="M341.202,48.984c-0.499,0.196-0.969,0.424-1.462,0.567c-1.401,0.408-2.603-0.583-2.706-2.057
				c-0.01-0.127-0.002-0.369-0.002-0.369s0.204-0.007,0.365-0.006c1.057,0.013,2.111,0.006,3.168,0.006
				c0.382,0,0.629,0.003,0.769,0.003c0.021-0.163,0.046-0.541-0.066-0.961c-0.284-0.997-0.939-1.595-1.971-1.717
				c-0.98-0.116-1.825,0.181-2.414,1.017c-0.587,0.833-0.59,1.771-0.394,2.712c0.146,0.704,0.531,1.289,1.164,1.652
				c1.129,0.647,2.24,0.492,3.322-0.138c0.102-0.061,0.176-0.114,0.227-0.175V48.984L341.202,48.984z M337.132,46.244
				c0.157-0.553,0.86-1.289,1.804-1.281c0.877,0.006,1.472,0.627,1.664,1.286c0.033,0.113,0.063,0.338,0.063,0.338
				s-0.191,0.002-0.33-0.001c-0.486-0.012-0.973-0.004-1.46-0.004c-0.476,0-0.952-0.007-1.428,0.003
				c-0.142,0.003-0.378,0.005-0.378,0.005S337.1,46.357,337.132,46.244z"/>
			<path fill="#10ABE3" d="M352.187,49.302c-0.098-0.01-0.198,0.09-0.286,0.129c-0.671,0.291-1.345,0.345-2.003-0.003
				c-0.985-0.516-1.457-1.593-1.195-2.679c0.252-1.055,1.176-1.79,2.261-1.743c0.403,0.019,0.801,0.153,1.224,0.239l0.002-0.001
				V44.72c-0.069-0.095-0.209-0.147-0.438-0.202c-0.514-0.119-1.016-0.133-1.534-0.016c-1.98,0.446-2.751,2.561-1.918,4.221
				c0.71,1.418,2.445,1.812,3.808,1.263c0.028-0.013,0.057-0.028,0.082-0.048L352.187,49.302L352.187,49.302z"/>
			<rect x="292.709" y="41.941" fill="#10ABE3" width="0.677" height="0.669"/>
			<rect x="307.365" y="44.629" fill="#10ABE3" width="0.678" height="5.502"/>
			<rect x="307.365" y="41.941" fill="#10ABE3" width="0.678" height="0.669"/>
			<path fill="#10ABE3" d="M299.939,46.43c-0.261-1.028-0.925-1.703-2-1.935c-0.745-0.16-1.435-0.028-2.134,0.366v-0.354h-0.665
				v8.25h0.601c-0.001-0.531-0.003-1.996-0.005-2.675c0-0.224,0.048-0.288,0.297-0.188c0.35,0.14,0.725,0.268,1.096,0.293
				c1.144,0.08,2.04-0.358,2.59-1.396C300.117,48.039,300.138,47.223,299.939,46.43z M298.875,48.88
				c-0.656,0.896-2.047,1.074-2.904,0.369c-0.123-0.101-0.214-0.305-0.225-0.467c-0.028-0.485-0.027-2.434,0-2.917
				c0.009-0.153,0.101-0.345,0.219-0.44c1.126-0.912,2.854-0.356,3.256,1.033C299.47,47.321,299.416,48.141,298.875,48.88z"/>
			<path fill="#10ABE3" d="M305.943,46.43c-0.26-1.028-0.924-1.703-1.998-1.935c-0.746-0.16-1.436-0.028-2.135,0.366v-0.354h-0.665
				v8.25h0.601c-0.002-0.531-0.003-1.996-0.005-2.675c0-0.224,0.049-0.288,0.297-0.188c0.35,0.14,0.725,0.268,1.096,0.293
				c1.144,0.08,2.04-0.358,2.591-1.396C306.122,48.039,306.142,47.223,305.943,46.43z M304.878,48.88
				c-0.654,0.896-2.046,1.074-2.902,0.369c-0.123-0.101-0.215-0.305-0.225-0.467c-0.029-0.485-0.028-2.434,0-2.917
				c0.008-0.153,0.101-0.345,0.219-0.44c1.125-0.912,2.853-0.356,3.254,1.033C305.474,47.321,305.42,48.141,304.878,48.88z"/>
			<path fill="#10ABE3" d="M357.72,44.594h-0.534c0,0-0.065,0.139-0.128,0.261c-0.41,0.833-0.815,1.67-1.229,2.504
				c-0.147,0.296-0.309,0.587-0.482,0.92c-0.071-0.099-0.1-0.127-0.118-0.162c-0.565-1.079-1.133-2.157-1.696-3.238
				c-0.069-0.135-0.175-0.285-0.175-0.285h-0.591c-0.009,0.003-0.052,0.006-0.062,0.009c0.023,0.074,0.07,0.154,0.106,0.225
				c0.684,1.309,1.375,2.613,2.045,3.929c0.073,0.145,0.088,0.378,0.021,0.522c-0.357,0.778-0.749,1.541-1.128,2.31
				c-0.188,0.381-0.369,0.767-0.563,1.168h0.604c0.024-0.04,0.051-0.086,0.078-0.139c0.143-0.286,0.287-0.572,0.429-0.86
				c1.017-2.065,2.033-4.131,3.047-6.197c0.153-0.312,0.318-0.647,0.468-0.965C357.788,44.588,357.742,44.601,357.72,44.594z"/>
			<path fill="#10ABE3" d="M287.442,50.05c0.001-0.494,0.005-2.592,0.012-3.548c0.001-0.16,0.016-0.344,0.095-0.474
				c0.323-0.523,0.794-0.865,1.399-0.997c0.717-0.159,1.391,0.147,1.604,0.78c0.12,0.356,0.179,0.748,0.188,1.124
				c0.024,0.966,0.014,1.932,0.009,2.896h-0.001v0.218h0.619v-0.218l0,0c-0.008-1.203,0.021-2.405-0.035-3.604
				c-0.029-0.645-0.301-1.242-0.934-1.547c-0.872-0.418-1.706-0.301-2.476,0.279c-0.129,0.098-0.246,0.212-0.438,0.378
				c-0.018-0.202-0.034-0.322-0.034-0.439c-0.002-0.762-0.006-2.33-0.008-2.957h-0.602v8.108H287.442L287.442,50.05z"/>
			<rect x="292.709" y="44.629" fill="#10ABE3" width="0.677" height="5.421"/>
			<path fill="#10ABE3" d="M310.181,50.05c0.006-0.427,0.022-2.427-0.018-3.339c-0.023-0.544,0.189-0.93,0.589-1.218
				c0.277-0.202,0.604-0.372,0.936-0.455c0.788-0.197,1.419,0.183,1.646,0.962c0.085,0.293,0.122,0.608,0.127,0.915
				c0.016,0.863,0.01,2.725,0.009,3.134h0.619c0.002-0.459,0.015-2.739-0.032-3.8c-0.027-0.66-0.311-1.247-0.942-1.578
				c-0.815-0.424-1.88-0.258-2.596,0.396c-0.081,0.073-0.162,0.147-0.303,0.276c-0.018-0.206-0.034-0.811-0.034-0.811h-0.618v5.517
				L310.181,50.05L310.181,50.05z"/>
			<path fill="#10ABE3" d="M342.916,50.05c0.005-0.427,0.022-2.427-0.018-3.339c-0.023-0.544,0.19-0.93,0.589-1.218
				c0.276-0.202,0.604-0.372,0.935-0.455c0.789-0.197,1.42,0.183,1.646,0.962c0.086,0.293,0.122,0.608,0.128,0.915
				c0.014,0.863,0.01,2.725,0.009,3.134h0.618c0.002-0.459,0.014-2.739-0.032-3.8c-0.026-0.66-0.311-1.247-0.942-1.578
				c-0.814-0.424-1.881-0.258-2.596,0.396c-0.082,0.073-0.162,0.147-0.303,0.276c-0.017-0.206-0.034-0.811-0.034-0.811h-0.618v5.517
				L342.916,50.05L342.916,50.05z"/>
		</g>
	</g>
</g>
<g>
	<g>
		<g>
			<path fill="#FFFFFF" d="M320.521,342.927c0,6.641-4.776,12.023-10.67,12.023h-57.798c-5.894,0-10.67-5.384-10.67-12.023V218.209
				c0-6.64,4.776-12.023,10.67-12.023h57.798c5.894,0,10.67,5.385,10.67,12.023V342.927z"/>
			<circle fill="#B7B7B7" cx="280.952" cy="345.36" r="5.561"/>
			<path fill="#B7B7B7" d="M294.997,217.664c0,0.911-0.466,1.652-1.04,1.652h-22.651c-0.574,0-1.039-0.741-1.039-1.652l0,0
				c0-0.915,0.465-1.655,1.039-1.655h22.651C294.531,216.009,294.997,216.749,294.997,217.664L294.997,217.664z"/>
			<rect x="246.37" y="222.016" fill="#2C3940" width="68.789" height="114.954"/>
			<path fill="#2BA0DA" d="M257.337,282.829c0-11.678,12.313-39.636,22.881-39.636c10.571,0,22.885,29.469,22.885,39.636
				S257.337,294.505,257.337,282.829z"/>
		</g>
		<path fill="#FFFFFF" d="M283.158,267.91c0,1.545-1.578,2.798-3.525,2.798l0,0c-1.948,0-3.526-1.253-3.526-2.798v-15.662
			c0-1.545,1.579-2.799,3.526-2.799l0,0c1.947,0,3.525,1.254,3.525,2.799V267.91z"/>
	</g>
	<circle fill="#FFFFFF" cx="279.584" cy="278.175" r="4.399"/>
</g>
<circle fill="#87D5F3" cx="352.896" cy="108.411" r="13.828"/>
<circle fill="#87D5F3" cx="393" cy="180.64" r="8.828"/>
<g>
	<circle fill="#87D5F3" cx="362.939" cy="236.445" r="27.069"/>
	<path opacity="0.2" fill="#FFFFFF" enable-background="new    " d="M381.954,246.005c0,0,10.051-13.955-1.815-26.624
		c-11.864-12.668-27.87,0.42-27.87,0.42S374.64,216.311,381.954,246.005z"/>
</g>
</svg>
