<?xml version="1.0" encoding="utf-8"?>
<!-- Generator: Adobe Illustrator 16.0.0, SVG Export Plug-In . SVG Version: 6.00 Build 0)  -->
<!DOCTYPE svg PUBLIC "-//W3C//DTD SVG 1.1//EN" "http://www.w3.org/Graphics/SVG/1.1/DTD/svg11.dtd">
<svg version="1.1" id="Layer_1" xmlns="http://www.w3.org/2000/svg" xmlns:xlink="http://www.w3.org/1999/xlink" x="0px" y="0px"
	 width="1200px" height="1200px" viewBox="0 0 1200 1200" enable-background="new 0 0 1200 1200" xml:space="preserve">
<g>
	<path fill="#1898D5" d="M869.969,133.72c-37.901-14.636-62.058-7.324-73.377-1.403c25.008,3.642,42.955,13.553,42.955,25.214
		c0,12.809-21.646,23.508-50.523,26.104c-4.38,0.395-8.918,0.606-13.58,0.606c-12.589,0-24.32-1.518-34.226-4.129
		c-17.951-4.734-29.878-13.075-29.878-22.582c0-9.139,11.023-17.203,27.828-22.019L651.4,119.235v354.2c0,0,249.173,4.347,291.184,0
		c42.012-4.347,99.236-33.319,99.236-33.319V119.235C1041.82,119.235,963.409,172.291,869.969,133.72z"/>
	<rect x="155.589" y="973.591" fill="#1898D5" width="29.336" height="218.389"/>
	<rect x="155.589" y="700.878" fill="#1898D5" width="29.336" height="203.176"/>
	<rect x="155.589" y="443.737" fill="#1898D5" width="29.336" height="189.234"/>
	<rect x="155.589" y="196.737" fill="#1898D5" width="29.336" height="178.188"/>
	<rect x="155.589" y="5.512" fill="#1898D5" width="29.336" height="123.862"/>
	<path fill="none" stroke="#179CD8" stroke-miterlimit="10" d="M711.34,157.531c0,9.506,11.927,17.848,29.878,22.582v-44.22
		l-2.05-0.38C722.363,140.328,711.34,148.392,711.34,157.531z"/>
	<path fill="#1898D5" d="M789.023,140.239v43.397c28.878-2.597,50.523-13.295,50.523-26.104c0-11.662-17.947-21.572-42.955-25.214
		c-5.067,2.651-7.568,5.024-7.568,5.024V140.239z"/>
	<g>
		<path fill="#047BAE" d="M711.34,157.531c0,9.506,11.927,17.848,29.878,22.582v-44.22l-2.05-0.38
			C722.363,140.328,711.34,148.392,711.34,157.531z"/>
		<path fill="#047BAE" d="M789.023,140.239v43.397c28.878-2.597,50.523-13.295,50.523-26.104c0-11.662-17.947-21.572-42.955-25.214
			c-5.067,2.651-7.568,5.024-7.568,5.024V140.239z"/>
	</g>
	<g>
		<path fill="#1898D5" d="M646.148,594.399l0.183,326.678h48.529v25.354c0,0,0.726,36.217,65.915,36.217
			c65.19,0,74.607-40.563,74.607-40.563s39.115,28.249,105.753,28.249c66.637,0,100.685-47.083,100.685-47.083v-362.17
			c0,0-57.225,28.973-99.236,33.318C900.573,598.746,646.148,594.399,646.148,594.399z"/>
	</g>
	<path fill="#1898D5" d="M195.791,607.438v38.571h-44.547v42.917h44.547v227.623h-44.547v43.461h44.547
		c0,0,54.326,52.152,154.827,46.72c100.502-5.432,109.737-19.557,110.281-33.139c0.543-13.581,0-22.816,0-22.816
		s-5.433-16.298,28.25-22.817c33.681-6.518,45.089-8.691,45.089-8.691v-73.882V654.158c0,0-182.533-11.952-221.104-15.212
		C274.562,635.688,228.929,628.081,195.791,607.438z"/>
	<rect x="151.244" y="387.058" fill="#1898D5" width="55.412" height="42.554"/>
	<path fill="#1898D5" d="M426.905,144.467c-11.048,3.615-17.616,6.094-17.616,6.094c20.269,6.64,28.614,33.06-0.543,47.305
		c-16.168,7.899-43.861,12.059-87.463,7.02C189,186.959,190.901,135.513,190.901,135.513h-39.657v51.446h45.09
		c0,0,0,237.22,0,253.156c0,18.834,6.221,27.094,6.7,27.887c39.838,54.326,111.729,58.491,111.729,58.491
		c155.371,23.903,219.474-29.336,219.474-29.336v-21.791V284.745v-165.51C491.147,124.834,449.56,137.053,426.905,144.467z"/>
	<path fill="#047BAE" d="M409.29,150.561v47.022C437.777,183.274,429.427,157.158,409.29,150.561z"/>
	<ellipse fill="#FFFFFF" cx="625.505" cy="558.544" rx="341.707" ry="335.732"/>
	<path fill="#179CD8" d="M667.517,492.701H795c0,0-7.24-89.819-134.727-89.819c-127.483,0-90.542,0-90.542,0
		s-114.445,2.174-114.445,89.819c0,87.644,109.376,83.298,109.376,83.298s111.547,2.896,111.547,32.594
		c0,29.699-81.126,41.288-93.439,0H450.215c0,0,3.623,93.44,131.105,93.44c127.484,0,76.056,0,76.056,0
		s147.766,5.072,147.766-100.683c0-94.165-149.939-91.267-149.939-91.267s-84.747,0.725-84.747-25.352
		C570.456,458.656,665.344,454.312,667.517,492.701z"/>
</g>
</svg>
