<?xml version="1.0" encoding="utf-8"?>
<!-- Generator: Adobe Illustrator 16.0.0, SVG Export Plug-In . SVG Version: 6.00 Build 0)  -->
<!DOCTYPE svg PUBLIC "-//W3C//DTD SVG 1.1//EN" "http://www.w3.org/Graphics/SVG/1.1/DTD/svg11.dtd">
<svg version="1.1" id="Layer_1" xmlns="http://www.w3.org/2000/svg" xmlns:xlink="http://www.w3.org/1999/xlink" x="0px" y="0px"
	 width="512px" height="512px" viewBox="0 0 512 512" enable-background="new 0 0 512 512" xml:space="preserve">
<rect x="-0.385" fill="#BCE2F1" width="512" height="325.629"/>
<g>
	<rect x="276.248" y="200.362" fill="#46AADF" width="52.357" height="18.391"/>
	<rect x="276.248" y="218.753" fill="#F3783E" width="52.357" height="18.391"/>
	<rect x="119.181" y="200.362" fill="#F3783E" width="52.348" height="18.391"/>
	<rect x="171.529" y="200.362" fill="#46AADF" width="52.364" height="18.391"/>
	<rect x="223.893" y="200.362" fill="#F3783E" width="52.355" height="18.391"/>
	<rect x="171.529" y="181.979" fill="#F3783E" width="52.364" height="18.383"/>
	<rect x="223.893" y="181.979" fill="#46AADF" width="52.355" height="18.383"/>
	<rect x="119.181" y="218.753" fill="#46AADF" width="52.348" height="18.391"/>
	<rect x="66.817" y="218.753" fill="#DC1F26" width="52.364" height="18.391"/>
	<rect x="223.893" y="218.753" fill="#DC1F26" width="52.355" height="18.391"/>
	<rect x="171.529" y="218.753" fill="#13AE98" width="52.364" height="18.391"/>
	<polygon fill="#047EAD" points="365.172,193.592 365.172,185.778 384.018,154.057 434.131,153.708 434.131,193.592 	"/>
	<path fill="#FFFFFF" d="M405.51,156.857c9.332,0,16.898,7.436,16.898,16.596c0,9.168-7.566,16.596-16.898,16.596
		c-9.33,0-16.889-7.427-16.889-16.596C388.621,164.293,396.18,156.857,405.51,156.857z"/>
	<path fill="#1C9AD6" d="M407.584,170.196h6.307c0,0-0.357-4.433-6.662-4.433c-6.299,0-4.471,0-4.471,0s-5.664,0.101-5.664,4.433
		c0,4.341,5.406,4.124,5.406,4.124s5.518,0.139,5.518,1.609c0,1.47-4.008,2.043-4.619,0h-6.553c0,0,0.178,4.62,6.482,4.62
		c6.299,0,3.762,0,3.762,0s7.303,0.255,7.303-4.975c0-4.658-7.41-4.51-7.41-4.51s-4.195,0.03-4.195-1.254
		C402.787,168.517,407.484,168.3,407.584,170.196z"/>
	<path fill="#FFFFFF" d="M329.039,193.592c0,0,0,11.35,0,24.217c0,12.866-6.809,19.095-20.434,19.095s-264.256,0-264.256,0
		s-2.289,18.159,0,28.502h156.303l19.775,24.365h108.612h20.264h115.736v-95.42L329.039,193.592z"/>
	<path fill="#F3BB1B" d="M465.039,330.289c0-3.961,0-40.518,0-40.518H349.303h-20.264H220.427l-19.775-24.365H44.349
		c2.306,10.346,1.842,12.412,17.702,26.197c15.86,13.797,13.787,59.359,13.787,59.359s365.517,0.99,377.472,0.99
		C465.271,351.953,465.039,334.25,465.039,330.289z"/>
	<path fill="#D1B183" d="M445.162,270.459c0,1.523-1.238,2.754-2.762,2.754h-10.111c-1.525,0-2.762-1.23-2.762-2.754v-2.297
		c0-1.525,1.236-2.756,2.762-2.756H442.4c1.523,0,2.762,1.23,2.762,2.756V270.459z"/>
	<path fill="#D1B183" d="M400.799,270.459c0,0.766-0.611,1.377-1.377,1.377h-4.596c-0.766,0-1.385-0.611-1.385-1.377v-3.676
		c0-0.764,0.619-1.377,1.385-1.377h4.596c0.766,0,1.377,0.613,1.377,1.377V270.459z"/>
	<path fill="#D1B183" d="M392.064,270.459c0,0.766-0.619,1.377-1.377,1.377h-4.598c-0.756,0-1.377-0.611-1.377-1.377v-3.676
		c0-0.764,0.621-1.377,1.377-1.377h4.598c0.758,0,1.377,0.613,1.377,1.377V270.459z"/>
	<path fill="#D1B183" d="M383.328,270.459c0,0.766-0.617,1.377-1.377,1.377h-4.604c-0.758,0-1.377-0.611-1.377-1.377v-3.676
		c0-0.764,0.619-1.377,1.377-1.377h4.604c0.76,0,1.377,0.613,1.377,1.377V270.459z"/>
	<path fill="#D1B183" d="M373.904,270.459c0,0.766-0.609,1.377-1.375,1.377h-17.014c-0.76,0-1.379-0.611-1.379-1.377v-3.676
		c0-0.764,0.619-1.377,1.379-1.377h17.014c0.766,0,1.375,0.613,1.375,1.377V270.459z"/>
	<path fill="#D1B183" d="M406.779,275.172c0,1.082-0.881,1.949-1.957,1.949s-1.957-0.867-1.957-1.949
		c0-1.084,0.881-1.959,1.957-1.959S406.779,274.088,406.779,275.172z"/>
	<path fill="#D1B183" d="M359.539,275.172c0,1.082-0.867,1.949-1.951,1.949c-1.082,0-1.949-0.867-1.949-1.949
		c0-1.084,0.867-1.959,1.949-1.959C358.672,273.213,359.539,274.088,359.539,275.172z"/>
	<path fill="#D1B183" d="M425.162,276.146c0,0.541-0.432,0.975-0.975,0.975h-9.996c-0.541,0-0.975-0.434-0.975-0.975l0,0
		c0-0.543,0.434-0.975,0.975-0.975h9.996C424.73,275.172,425.162,275.604,425.162,276.146L425.162,276.146z"/>
	<g>
		<path fill="#D1B183" d="M160.829,254.305c0,0.758-0.618,1.377-1.385,1.377h-5.509c-0.766,0-1.385-0.619-1.385-1.377v-5.98
			c0-0.758,0.619-1.377,1.385-1.377h5.509c0.767,0,1.385,0.619,1.385,1.377V254.305z"/>
		<path fill="#D1B183" d="M150.949,254.305c0,0.758-0.618,1.377-1.385,1.377h-5.517c-0.758,0-1.377-0.619-1.377-1.377v-5.98
			c0-0.758,0.619-1.377,1.377-1.377h5.517c0.767,0,1.385,0.619,1.385,1.377V254.305z"/>
		<path fill="#D1B183" d="M141.061,254.305c0,0.758-0.618,1.377-1.378,1.377h-5.516c-0.766,0-1.385-0.619-1.385-1.377v-5.98
			c0-0.758,0.619-1.377,1.385-1.377h5.516c0.76,0,1.378,0.619,1.378,1.377V254.305z"/>
		<path fill="#D1B183" d="M131.173,254.305c0,0.758-0.61,1.377-1.378,1.377h-5.509c-0.765,0-1.384-0.619-1.384-1.377v-5.98
			c0-0.758,0.619-1.377,1.384-1.377h5.509c0.768,0,1.378,0.619,1.378,1.377V254.305z"/>
		<path fill="#D1B183" d="M121.293,254.305c0,0.758-0.618,1.377-1.386,1.377h-4.827c-0.759,0-1.378-0.619-1.378-1.377v-4.139
			c0-0.758,0.619-1.377,1.378-1.377h4.827c0.768,0,1.386,0.619,1.386,1.377V254.305z"/>
		<path fill="#D1B183" d="M87.739,255.225c0,0.758-0.62,1.379-1.378,1.379h-2.073c-0.759,0-1.378-0.621-1.378-1.379v-5.059
			c0-0.758,0.619-1.377,1.378-1.377h2.073c0.758,0,1.378,0.619,1.378,1.377V255.225z"/>
		<path fill="#D1B183" d="M81.533,255.225c0,0.758-0.619,1.379-1.376,1.379h-2.074c-0.759,0-1.377-0.621-1.377-1.379v-5.059
			c0-0.758,0.618-1.377,1.377-1.377h2.074c0.757,0,1.376,0.619,1.376,1.377V255.225z"/>
		<path fill="#D1B183" d="M70.724,255.225c0,0.758-0.61,1.379-1.377,1.379h-2.066c-0.758,0-1.376-0.621-1.376-1.379v-5.059
			c0-0.758,0.618-1.377,1.376-1.377h2.066c0.767,0,1.377,0.619,1.377,1.377V255.225z"/>
		<path fill="#D1B183" d="M64.751,255.225c0,0.758-0.618,1.379-1.386,1.379H61.3c-0.757,0-1.377-0.621-1.377-1.379v-5.059
			c0-0.758,0.62-1.377,1.377-1.377h2.065c0.768,0,1.386,0.619,1.386,1.377V255.225z"/>
		<path fill="#D1B183" d="M58.771,255.225c0,0.758-0.619,1.379-1.378,1.379h-2.065c-0.765,0-1.385-0.621-1.385-1.379v-5.059
			c0-0.758,0.62-1.377,1.385-1.377h2.065c0.759,0,1.378,0.619,1.378,1.377V255.225z"/>
	</g>
	<g>
		<g>
			<path fill="#1F96D3" d="M282.695,270.174c0.045,0.178-0.023,4.557-0.023,4.557s-1.68,0.865-4.117,1.299
				c-2.299,0.418-4.525,0.232-6.723-0.426c-4.898-1.453-7.822-5.662-7.59-10.861c0.215-4.836,3.629-8.82,8.426-9.873
				c3.018-0.658,5.973-0.41,8.936,0.332c0.781,0.201,1.105,0.48,1.105,0.48s0,3.42,0,4.836c-3.898-1.314-7.713-2.607-10.691,1.307
				c-1.361,1.795-1.145,5.354,0.17,7.148C274.066,271.535,276.83,271.859,282.695,270.174z"/>
			<path fill="#1F96D3" d="M231.522,260.447c-1.408-0.494-2.593-0.967-3.807-1.322c-1.138-0.326-2.306-0.334-3.436,0.146
				c-0.642,0.287-1.19,0.611-1.292,1.4c-0.116,0.883,0.38,1.424,1.084,1.74c1.787,0.797,3.667,1.385,5.377,2.307
				c3.335,1.787,4.146,5.988,1.811,8.781c-1.609,1.92-3.808,2.607-6.198,2.777c-2.221,0.162-4.394-0.193-6.568-0.658
				c-1.006-0.217-1.764-0.541-1.764-0.541s-0.016-3.582-0.016-4.721c2.104,0.76,4.038,1.672,6.205,1.518
				c0.611-0.039,1.206-0.008,1.794-0.285c0.721-0.334,1.262-0.729,1.301-1.596c0.047-0.811-0.41-1.291-1.052-1.578
				c-1.548-0.711-3.156-1.307-4.697-2.057c-2.816-1.371-4.108-3.35-3.829-5.865c0.294-2.854,2.09-4.434,4.673-5.316
				c3.234-1.098,6.391-0.68,9.547,0.395c0.356,0.117,0.867,0.373,0.867,0.373S231.522,259.148,231.522,260.447z"/>
			<path fill="#1F96D3" d="M248.327,254.514c-6.887,0.008-11.312,4.324-11.288,11.033c0.016,6.785,4.247,10.77,11.428,10.754
				c6.87-0.008,11.243-4.225,11.235-10.832C259.701,258.799,255.244,254.514,248.327,254.514z M251.87,269.461
				c-0.804,1.416-2.158,1.988-3.729,1.912c-1.64-0.086-2.909-0.867-3.59-2.438c-0.472-1.084-0.789-2.189-0.735-3.381
				c-0.015-2.965,1.277-5.348,3.203-5.873c2.499-0.68,4.434,0.324,5.346,2.871C253.216,264.92,253.131,267.256,251.87,269.461z"/>
			<path fill="#1F96D3" d="M330.199,265.746c3.436-1.979,4.535-3.844,3.854-6.49c-0.705-2.762-3.127-4.34-6.871-4.379
				c-3.504-0.047-11.938-0.053-11.938-0.053s0.031,11.156,0.031,16.006c0,5.363-0.008,5.029-0.008,5.029l6.498,0.008v-8.449
				c0,0,0.418-0.037,0.852-0.037c2.43,0.014,3.412,0.572,4.162,2.297c0.727,1.68,1.33,3.412,1.988,5.121
				c0.248,0.65,0.434,1.068,0.434,1.068s4.758,0.031,6.9,0.031C334.377,272.232,334.129,267.953,330.199,265.746z M323.846,263.643
				c-1.709,0-2.018-0.006-2.018-0.006s0.047-3.816,0.047-4.713c4.65-0.193,5.787,0.797,5.787,2.375
				C327.676,262.924,326.439,263.643,323.846,263.643z"/>
			<path fill="#1F96D3" d="M303.244,255.596c-0.324-0.811-0.295-0.734-0.295-0.734l-7.984-0.031c0,0-0.232,0.357-0.658,1.424
				c-2.391,5.957-4.865,11.885-7.279,17.826c-0.217,0.541-0.721,1.818-0.721,1.818h6.654l1.764-4.557l8.535,0.047l1.803,4.51
				c0,0,5.338,0,6.475,0C308.689,268.936,305.936,262.281,303.244,255.596z M295.971,267.055c0.977-2.537,1.904-4.951,2.932-7.643
				c0.998,2.684,1.896,5.066,2.855,7.643C299.764,267.055,297.99,267.055,295.971,267.055z"/>
		</g>
	</g>
</g>
<rect x="-0.385" y="325.629" fill="#1C9AD6" width="512" height="186.371"/>
</svg>
